<?xml version="1.0" encoding="UTF-8" standalone="no"?>
<!DOCTYPE svg PUBLIC "-//W3C//DTD SVG 1.1//EN"
 "http://www.w3.org/Graphics/SVG/1.1/DTD/svg11.dtd">
<!-- Generated by graphviz version 2.40.1 (20161225.0304)
 -->
<!-- Title: dependencies Pages: 1 -->
<svg width="901pt" height="284pt"
 viewBox="0.00 0.00 901.00 284.00" xmlns="http://www.w3.org/2000/svg" xmlns:xlink="http://www.w3.org/1999/xlink">
<g id="graph0" class="graph" transform="scale(1 1) rotate(0) translate(4 280)">
<title>dependencies</title>
<polygon fill="#ffffff" stroke="transparent" points="-4,4 -4,-280 897,-280 897,4 -4,4"/>
<text text-anchor="start" x="425.5091" y="-42.4" font-family="sans-serif" font-weight="bold" font-size="14.00" fill="#000000">Legend</text>
<polygon fill="#ffffb3" stroke="transparent" points="212.5,-10 212.5,-30 232.5,-30 232.5,-10 212.5,-10"/>
<text text-anchor="start" x="236.129" y="-15.4" font-family="sans-serif" font-size="14.00" fill="#000000"> &#160;Declarations</text>
<polygon fill="#8dd3c7" stroke="transparent" points="325.5,-10 325.5,-30 345.5,-30 345.5,-10 325.5,-10"/>
<text text-anchor="start" x="349.2251" y="-15.4" font-family="sans-serif" font-size="14.00" fill="#000000"> &#160;Module</text>
<polygon fill="#80b1d3" stroke="transparent" points="411.5,-10 411.5,-30 431.5,-30 431.5,-10 411.5,-10"/>
<text text-anchor="start" x="435.2812" y="-15.4" font-family="sans-serif" font-size="14.00" fill="#000000"> &#160;Bootstrap</text>
<polygon fill="#fdb462" stroke="transparent" points="508.5,-10 508.5,-30 528.5,-30 528.5,-10 508.5,-10"/>
<text text-anchor="start" x="532.1732" y="-15.4" font-family="sans-serif" font-size="14.00" fill="#000000"> &#160;Providers</text>
<polygon fill="#fb8072" stroke="transparent" points="604.5,-10 604.5,-30 624.5,-30 624.5,-10 604.5,-10"/>
<text text-anchor="start" x="628.2258" y="-15.4" font-family="sans-serif" font-size="14.00" fill="#000000"> &#160;Exports</text>
<g id="clust1" class="cluster">
<title>cluster_NgFilterBarModule</title>
<polygon fill="none" stroke="#000000" stroke-dasharray="1,5" points="8,-70 8,-268 885,-268 885,-70 8,-70"/>
</g>
<g id="clust2" class="cluster">
<title>cluster_NgFilterBarModule_declarations</title>
<polygon fill="none" stroke="#000000" points="423,-78 423,-130 877,-130 877,-78 423,-78"/>
</g>
<g id="clust6" class="cluster">
<title>cluster_NgFilterBarModule_imports</title>
<polygon fill="none" stroke="#000000" points="16,-78 16,-130 415,-130 415,-78 16,-78"/>
</g>
<g id="clust7" class="cluster">
<title>cluster_NgFilterBarModule_exports</title>
<polygon fill="none" stroke="#000000" points="206,-208 206,-260 672,-260 672,-208 206,-208"/>
</g>
<!-- NGFilterBarComponent -->
<g id="node1" class="node">
<title>NGFilterBarComponent</title>
<polygon fill="#ffffb3" stroke="#000000" points="869.087,-122 716.913,-122 716.913,-86 869.087,-86 869.087,-122"/>
<text text-anchor="middle" x="793" y="-99.8" font-family="Times,serif" font-size="14.00" fill="#000000">NGFilterBarComponent</text>
</g>
<!-- NgFilterBarModule -->
<g id="node4" class="node">
<title>NgFilterBarModule</title>
<polygon fill="#8dd3c7" stroke="#000000" points="482.698,-187 479.698,-191 458.698,-191 455.698,-187 355.302,-187 355.302,-151 482.698,-151 482.698,-187"/>
<text text-anchor="middle" x="419" y="-164.8" font-family="Times,serif" font-size="14.00" fill="#000000">NgFilterBarModule</text>
</g>
<!-- NGFilterBarComponent&#45;&gt;NgFilterBarModule -->
<g id="edge1" class="edge">
<title>NGFilterBarComponent&#45;&gt;NgFilterBarModule</title>
<path fill="none" stroke="#000000" d="M793,-122.1061C793,-141.3391 793,-169 793,-169 793,-169 492.8679,-169 492.8679,-169"/>
<polygon fill="#000000" stroke="#000000" points="492.868,-165.5001 482.8679,-169 492.8679,-172.5001 492.868,-165.5001"/>
</g>
<!-- NGFilterBarDirective -->
<g id="node2" class="node">
<title>NGFilterBarDirective</title>
<polygon fill="#ffffb3" stroke="#000000" points="699.3375,-122 560.6625,-122 560.6625,-86 699.3375,-86 699.3375,-122"/>
<text text-anchor="middle" x="630" y="-99.8" font-family="Times,serif" font-size="14.00" fill="#000000">NGFilterBarDirective</text>
</g>
<!-- NGFilterBarDirective&#45;&gt;NgFilterBarModule -->
<g id="edge2" class="edge">
<title>NGFilterBarDirective&#45;&gt;NgFilterBarModule</title>
<path fill="none" stroke="#000000" d="M612.1874,-122.027C612.1874,-138.3976 612.1874,-160 612.1874,-160 612.1874,-160 492.7922,-160 492.7922,-160"/>
<polygon fill="#000000" stroke="#000000" points="492.7922,-156.5001 482.7922,-160 492.7921,-163.5001 492.7922,-156.5001"/>
</g>
<!-- NGFilterBarPipe -->
<g id="node3" class="node">
<title>NGFilterBarPipe</title>
<polygon fill="#ffffb3" stroke="#000000" points="542.643,-122 431.357,-122 431.357,-86 542.643,-86 542.643,-122"/>
<text text-anchor="middle" x="487" y="-99.8" font-family="Times,serif" font-size="14.00" fill="#000000">NGFilterBarPipe</text>
</g>
<!-- NGFilterBarPipe&#45;&gt;NgFilterBarModule -->
<g id="edge3" class="edge">
<title>NGFilterBarPipe&#45;&gt;NgFilterBarModule</title>
<path fill="none" stroke="#000000" d="M456.8889,-122.1061C456.8889,-122.1061 456.8889,-140.991 456.8889,-140.991"/>
<polygon fill="#000000" stroke="#000000" points="453.3889,-140.9909 456.8889,-150.991 460.3889,-140.991 453.3889,-140.9909"/>
</g>
<!-- NGFilterBarComponent  -->
<g id="node8" class="node">
<title>NGFilterBarComponent </title>
<polygon fill="#fb8072" stroke="#000000" points="663.5875,-252 508.4125,-252 508.4125,-216 663.5875,-216 663.5875,-252"/>
<text text-anchor="middle" x="586" y="-229.8" font-family="Times,serif" font-size="14.00" fill="#000000">NGFilterBarComponent </text>
</g>
<!-- NgFilterBarModule&#45;&gt;NGFilterBarComponent  -->
<g id="edge7" class="edge">
<title>NgFilterBarModule&#45;&gt;NGFilterBarComponent </title>
<path fill="none" stroke="#000000" stroke-dasharray="5,2" d="M482.8043,-178C505.4889,-178 525.5139,-178 525.5139,-178 525.5139,-178 525.5139,-205.973 525.5139,-205.973"/>
<polygon fill="#000000" stroke="#000000" points="522.0139,-205.973 525.5139,-215.973 529.0139,-205.973 522.0139,-205.973"/>
</g>
<!-- NGFilterBarDirective  -->
<g id="node9" class="node">
<title>NGFilterBarDirective </title>
<polygon fill="#fb8072" stroke="#000000" points="490.3378,-252 347.6622,-252 347.6622,-216 490.3378,-216 490.3378,-252"/>
<text text-anchor="middle" x="419" y="-229.8" font-family="Times,serif" font-size="14.00" fill="#000000">NGFilterBarDirective </text>
</g>
<!-- NgFilterBarModule&#45;&gt;NGFilterBarDirective  -->
<g id="edge8" class="edge">
<title>NgFilterBarModule&#45;&gt;NGFilterBarDirective </title>
<path fill="none" stroke="#000000" stroke-dasharray="5,2" d="M419,-187.1061C419,-187.1061 419,-205.991 419,-205.991"/>
<polygon fill="#000000" stroke="#000000" points="415.5001,-205.9909 419,-215.991 422.5001,-205.991 415.5001,-205.9909"/>
</g>
<!-- NGFilterBarPipe  -->
<g id="node10" class="node">
<title>NGFilterBarPipe </title>
<polygon fill="#fb8072" stroke="#000000" points="329.6425,-252 214.3575,-252 214.3575,-216 329.6425,-216 329.6425,-252"/>
<text text-anchor="middle" x="272" y="-229.8" font-family="Times,serif" font-size="14.00" fill="#000000">NGFilterBarPipe </text>
</g>
<!-- NgFilterBarModule&#45;&gt;NGFilterBarPipe  -->
<g id="edge9" class="edge">
<title>NgFilterBarModule&#45;&gt;NGFilterBarPipe </title>
<path fill="none" stroke="#000000" stroke-dasharray="5,2" d="M355.1253,-178C332.4158,-178 312.3687,-178 312.3687,-178 312.3687,-178 312.3687,-205.973 312.3687,-205.973"/>
<polygon fill="#000000" stroke="#000000" points="308.8688,-205.973 312.3687,-215.973 315.8688,-205.973 308.8688,-205.973"/>
</g>
<!-- CommonModule -->
<g id="node5" class="node">
<title>CommonModule</title>
<polygon fill="#8dd3c7" stroke="#000000" points="406.6681,-122 403.6681,-126 382.6681,-126 379.6681,-122 295.3319,-122 295.3319,-86 406.6681,-86 406.6681,-122"/>
<text text-anchor="middle" x="351" y="-99.8" font-family="Times,serif" font-size="14.00" fill="#000000">CommonModule</text>
</g>
<!-- CommonModule&#45;&gt;NgFilterBarModule -->
<g id="edge4" class="edge">
<title>CommonModule&#45;&gt;NgFilterBarModule</title>
<path fill="none" stroke="#000000" d="M381.1175,-122.1061C381.1175,-122.1061 381.1175,-140.991 381.1175,-140.991"/>
<polygon fill="#000000" stroke="#000000" points="377.6175,-140.9909 381.1175,-150.991 384.6175,-140.991 377.6175,-140.9909"/>
</g>
<!-- FormsModule -->
<g id="node6" class="node">
<title>FormsModule</title>
<polygon fill="#8dd3c7" stroke="#000000" points="277.8288,-122 274.8288,-126 253.8288,-126 250.8288,-122 182.1712,-122 182.1712,-86 277.8288,-86 277.8288,-122"/>
<text text-anchor="middle" x="230" y="-99.8" font-family="Times,serif" font-size="14.00" fill="#000000">FormsModule</text>
</g>
<!-- FormsModule&#45;&gt;NgFilterBarModule -->
<g id="edge5" class="edge">
<title>FormsModule&#45;&gt;NgFilterBarModule</title>
<path fill="none" stroke="#000000" d="M246.0465,-122.027C246.0465,-138.3976 246.0465,-160 246.0465,-160 246.0465,-160 345.0899,-160 345.0899,-160"/>
<polygon fill="#000000" stroke="#000000" points="345.0899,-163.5001 355.0899,-160 345.0898,-156.5001 345.0899,-163.5001"/>
</g>
<!-- NgbModule.forRoot() -->
<g id="node7" class="node">
<title>NgbModule.forRoot()</title>
<polygon fill="#8dd3c7" stroke="#000000" points="164.026,-122 161.026,-126 140.026,-126 137.026,-122 23.974,-122 23.974,-86 164.026,-86 164.026,-122"/>
<text text-anchor="middle" x="94" y="-99.8" font-family="Times,serif" font-size="14.00" fill="#000000">NgbModule.forRoot()</text>
</g>
<!-- NgbModule.forRoot()&#45;&gt;NgFilterBarModule -->
<g id="edge6" class="edge">
<title>NgbModule.forRoot()&#45;&gt;NgFilterBarModule</title>
<path fill="none" stroke="#000000" d="M94,-122.1061C94,-141.3391 94,-169 94,-169 94,-169 345.1782,-169 345.1782,-169"/>
<polygon fill="#000000" stroke="#000000" points="345.1783,-172.5001 355.1782,-169 345.1782,-165.5001 345.1783,-172.5001"/>
</g>
</g>
</svg>
