<?xml version="1.0" encoding="UTF-8" standalone="no"?>
<!DOCTYPE svg PUBLIC "-//W3C//DTD SVG 1.1//EN"
 "http://www.w3.org/Graphics/SVG/1.1/DTD/svg11.dtd">
<!-- Generated by graphviz version 2.40.1 (20161225.0304)
 -->
<!-- Title: dependencies Pages: 1 -->
<svg width="506pt" height="284pt"
 viewBox="0.00 0.00 506.00 284.00" xmlns="http://www.w3.org/2000/svg" xmlns:xlink="http://www.w3.org/1999/xlink">
<g id="graph0" class="graph" transform="scale(1 1) rotate(0) translate(4 280)">
<title>dependencies</title>
<polygon fill="#ffffff" stroke="transparent" points="-4,4 -4,-280 502,-280 502,4 -4,4"/>
<text text-anchor="start" x="228.0091" y="-42.4" font-family="sans-serif" font-weight="bold" font-size="14.00" fill="#000000">Legend</text>
<polygon fill="#ffffb3" stroke="transparent" points="15,-10 15,-30 35,-30 35,-10 15,-10"/>
<text text-anchor="start" x="38.629" y="-15.4" font-family="sans-serif" font-size="14.00" fill="#000000"> &#160;Declarations</text>
<polygon fill="#8dd3c7" stroke="transparent" points="128,-10 128,-30 148,-30 148,-10 128,-10"/>
<text text-anchor="start" x="151.7251" y="-15.4" font-family="sans-serif" font-size="14.00" fill="#000000"> &#160;Module</text>
<polygon fill="#80b1d3" stroke="transparent" points="214,-10 214,-30 234,-30 234,-10 214,-10"/>
<text text-anchor="start" x="237.7812" y="-15.4" font-family="sans-serif" font-size="14.00" fill="#000000"> &#160;Bootstrap</text>
<polygon fill="#fdb462" stroke="transparent" points="311,-10 311,-30 331,-30 331,-10 311,-10"/>
<text text-anchor="start" x="334.6732" y="-15.4" font-family="sans-serif" font-size="14.00" fill="#000000"> &#160;Providers</text>
<polygon fill="#fb8072" stroke="transparent" points="407,-10 407,-30 427,-30 427,-10 407,-10"/>
<text text-anchor="start" x="430.7258" y="-15.4" font-family="sans-serif" font-size="14.00" fill="#000000"> &#160;Exports</text>
<g id="clust1" class="cluster">
<title>cluster_NgFilterBarModule</title>
<polygon fill="none" stroke="#000000" stroke-dasharray="1,5" points="8,-70 8,-268 490,-268 490,-70 8,-70"/>
</g>
<g id="clust3" class="cluster">
<title>cluster_NgFilterBarModule_imports</title>
<polygon fill="none" stroke="#000000" points="16,-78 16,-130 415,-130 415,-78 16,-78"/>
</g>
<g id="clust4" class="cluster">
<title>cluster_NgFilterBarModule_exports</title>
<polygon fill="none" stroke="#000000" points="16,-208 16,-260 482,-260 482,-208 16,-208"/>
</g>
<!-- CommonModule -->
<g id="node1" class="node">
<title>CommonModule</title>
<polygon fill="#8dd3c7" stroke="#000000" points="406.6681,-122 403.6681,-126 382.6681,-126 379.6681,-122 295.3319,-122 295.3319,-86 406.6681,-86 406.6681,-122"/>
<text text-anchor="middle" x="351" y="-99.8" font-family="Times,serif" font-size="14.00" fill="#000000">CommonModule</text>
</g>
<!-- NgFilterBarModule -->
<g id="node4" class="node">
<title>NgFilterBarModule</title>
<polygon fill="#8dd3c7" stroke="#000000" points="292.698,-187 289.698,-191 268.698,-191 265.698,-187 165.302,-187 165.302,-151 292.698,-151 292.698,-187"/>
<text text-anchor="middle" x="229" y="-164.8" font-family="Times,serif" font-size="14.00" fill="#000000">NgFilterBarModule</text>
</g>
<!-- CommonModule&#45;&gt;NgFilterBarModule -->
<g id="edge1" class="edge">
<title>CommonModule&#45;&gt;NgFilterBarModule</title>
<path fill="none" stroke="#000000" d="M295.1355,-104C289.1206,-104 285.1315,-104 285.1315,-104 285.1315,-104 285.1315,-140.8939 285.1315,-140.8939"/>
<polygon fill="#000000" stroke="#000000" points="281.6316,-140.8938 285.1315,-150.8939 288.6316,-140.8939 281.6316,-140.8938"/>
</g>
<!-- FormsModule -->
<g id="node2" class="node">
<title>FormsModule</title>
<polygon fill="#8dd3c7" stroke="#000000" points="277.8288,-122 274.8288,-126 253.8288,-126 250.8288,-122 182.1712,-122 182.1712,-86 277.8288,-86 277.8288,-122"/>
<text text-anchor="middle" x="230" y="-99.8" font-family="Times,serif" font-size="14.00" fill="#000000">FormsModule</text>
</g>
<!-- FormsModule&#45;&gt;NgFilterBarModule -->
<g id="edge2" class="edge">
<title>FormsModule&#45;&gt;NgFilterBarModule</title>
<path fill="none" stroke="#000000" d="M230,-122.1061C230,-122.1061 230,-140.991 230,-140.991"/>
<polygon fill="#000000" stroke="#000000" points="226.5001,-140.9909 230,-150.991 233.5001,-140.991 226.5001,-140.9909"/>
</g>
<!-- NgbModule.forRoot() -->
<g id="node3" class="node">
<title>NgbModule.forRoot()</title>
<polygon fill="#8dd3c7" stroke="#000000" points="164.026,-122 161.026,-126 140.026,-126 137.026,-122 23.974,-122 23.974,-86 164.026,-86 164.026,-122"/>
<text text-anchor="middle" x="94" y="-99.8" font-family="Times,serif" font-size="14.00" fill="#000000">NgbModule.forRoot()</text>
</g>
<!-- NgbModule.forRoot()&#45;&gt;NgFilterBarModule -->
<g id="edge3" class="edge">
<title>NgbModule.forRoot()&#45;&gt;NgFilterBarModule</title>
<path fill="none" stroke="#000000" d="M164.0751,-104C170.0467,-104 173.8685,-104 173.8685,-104 173.8685,-104 173.8685,-140.8939 173.8685,-140.8939"/>
<polygon fill="#000000" stroke="#000000" points="170.3686,-140.8938 173.8685,-150.8939 177.3686,-140.8939 170.3686,-140.8938"/>
</g>
<!-- NGFilterBarComponent  -->
<g id="node5" class="node">
<title>NGFilterBarComponent </title>
<polygon fill="#fb8072" stroke="#000000" points="473.5875,-252 318.4125,-252 318.4125,-216 473.5875,-216 473.5875,-252"/>
<text text-anchor="middle" x="396" y="-229.8" font-family="Times,serif" font-size="14.00" fill="#000000">NGFilterBarComponent </text>
</g>
<!-- NgFilterBarModule&#45;&gt;NGFilterBarComponent  -->
<g id="edge4" class="edge">
<title>NgFilterBarModule&#45;&gt;NGFilterBarComponent </title>
<path fill="none" stroke="#000000" stroke-dasharray="5,2" d="M292.6317,-169C327.0213,-169 362.5202,-169 362.5202,-169 362.5202,-169 362.5202,-205.8939 362.5202,-205.8939"/>
<polygon fill="#000000" stroke="#000000" points="359.0202,-205.8938 362.5202,-215.8939 366.0202,-205.8939 359.0202,-205.8938"/>
</g>
<!-- NGFilterBarDirective  -->
<g id="node6" class="node">
<title>NGFilterBarDirective </title>
<polygon fill="#fb8072" stroke="#000000" points="300.3378,-252 157.6622,-252 157.6622,-216 300.3378,-216 300.3378,-252"/>
<text text-anchor="middle" x="229" y="-229.8" font-family="Times,serif" font-size="14.00" fill="#000000">NGFilterBarDirective </text>
</g>
<!-- NgFilterBarModule&#45;&gt;NGFilterBarDirective  -->
<g id="edge5" class="edge">
<title>NgFilterBarModule&#45;&gt;NGFilterBarDirective </title>
<path fill="none" stroke="#000000" stroke-dasharray="5,2" d="M229,-187.1061C229,-187.1061 229,-205.991 229,-205.991"/>
<polygon fill="#000000" stroke="#000000" points="225.5001,-205.9909 229,-215.991 232.5001,-205.991 225.5001,-205.9909"/>
</g>
<!-- NGFilterBarPipe  -->
<g id="node7" class="node">
<title>NGFilterBarPipe </title>
<polygon fill="#fb8072" stroke="#000000" points="139.6425,-252 24.3575,-252 24.3575,-216 139.6425,-216 139.6425,-252"/>
<text text-anchor="middle" x="82" y="-229.8" font-family="Times,serif" font-size="14.00" fill="#000000">NGFilterBarPipe </text>
</g>
<!-- NgFilterBarModule&#45;&gt;NGFilterBarPipe  -->
<g id="edge6" class="edge">
<title>NgFilterBarModule&#45;&gt;NGFilterBarPipe </title>
<path fill="none" stroke="#000000" stroke-dasharray="5,2" d="M165.3786,-169C125.6502,-169 82,-169 82,-169 82,-169 82,-205.8939 82,-205.8939"/>
<polygon fill="#000000" stroke="#000000" points="78.5001,-205.8938 82,-215.8939 85.5001,-205.8939 78.5001,-205.8938"/>
</g>
</g>
</svg>
